# xmcd
#
# Track frame offsets:
#	182
#	24920
#	55995
#	79372
#	95105
#	124575
#	148147
#	184462
#	209600
#	241177
#	260780
#	302112
#
# Disc length: 4282 seconds
#
# Revision: 2
# Processed by: cddbd v1.5.2PL0 Copyright (c) Steve Scherf et al.
# Submitted via: Jack! The Knife 18 Bulletproof
#
DISCID=b610b80c
DTITLE=Helloween - Chameleon
DYEAR=1993
DGENRE=Metal
TTITLE0=First Time
TTITLE1=When The Sinner
TTITLE2=I Don't Wanna Cry No More
TTITLE3=Crazy Cat
TTITLE4=Giants
TTITLE5=Windmill
TTITLE6=Revolution Now
TTITLE7=In The Night
TTITLE8=Music
TTITLE9=Step Out Of Hell
TTITLE10=I Believe
TTITLE11=Longing
EXTD=Helloween and Tommy Hansen
EXTT0=Michael Weikath
EXTT1=Michael Kiske
EXTT2=Roland Grapow
EXTT3=Roland Grapow
EXTT4=Michael Weikath
EXTT5=Michael Weikath
EXTT6=Michael Weikath
EXTT7=Michael Kiske
EXTT8=Roland Grapow
EXTT9=Roland Grapow
EXTT10=Michael Kiske
EXTT11=Michael Kiske
PLAYORDER=
